<svg aria-hidden="true" style="width:0;height:0;position:absolute;overflow:hidden" xmlns="http://www.w3.org/2000/svg"><defs><symbol id="icon-code" viewBox="0 0 32 32"><path d="m19.952 4.319-1.084-.297c-.14-.047-.277-.032-.411.044s-.225.189-.271.341l-6.523 22.575c-.047.152-.032.295.044.428s.189.224.341.271l1.084.297c.14.047.277.032.411-.044s.225-.189.271-.341l6.523-22.576c.047-.152.032-.294-.044-.429s-.189-.224-.341-.271zM10.177 8.726a.55.55 0 0 0-.175-.402l-.874-.874c-.117-.117-.251-.175-.402-.175s-.286.059-.402.175L.175 15.599a.55.55 0 0 0 0 .804l8.149 8.149a.55.55 0 0 0 .804 0l.874-.874a.55.55 0 0 0 0-.804L3.13 16.001l6.872-6.872a.553.553 0 0 0 .175-.402zM31.825 15.598l-8.149-8.149a.55.55 0 0 0-.804 0l-.874.874a.55.55 0 0 0 0 .804l6.872 6.872-6.872 6.873a.55.55 0 0 0 0 .804l.874.874c.117.117.251.175.402.175s.285-.058.402-.175l8.149-8.149a.55.55 0 0 0 0-.804z"/></symbol><symbol id="icon-code-optimization" viewBox="0 0 32 32"><path d="M13.36 18.911v1.958L6.4 17.852v-1.674l6.96-3.017v1.972l-4.85 1.868 4.85 1.909zM17.664 13.12l-1.938 7.978c-.064.263-.121.471-.169.623s-.122.272-.221.356c-.099.086-.244.128-.433.128-.47 0-.706-.204-.706-.609 0-.106.046-.371.139-.796l1.931-7.978c.101-.424.198-.715.29-.872s.272-.235.54-.235c.231 0 .407.055.529.166s.183.263.183.457c0 .143-.049.404-.145.782zM25.6 17.852l-6.96 3.031v-1.958l4.864-1.909-4.864-1.882V13.19l6.96 3.003v1.66z"/><path d="M30.08 1.92H1.92C.86 1.92 0 2.78 0 3.84v24.32c0 1.06.86 1.92 1.92 1.92h28.16c1.06 0 1.92-.86 1.92-1.92V3.84c0-1.06-.86-1.92-1.92-1.92zm-4.8 1.28a1.281 1.281 0 0 1 0 2.56 1.281 1.281 0 0 1 0-2.56zm-3.52 0a1.281 1.281 0 0 1 0 2.56 1.281 1.281 0 0 1 0-2.56zm8.32 24.96H1.92V7.04h28.16v21.12zM28.8 5.76a1.281 1.281 0 0 1 0-2.56 1.281 1.281 0 0 1 0 2.56z"/></symbol><symbol id="icon-github" viewBox="0 0 32 32"><path d="M29.854 8.36c-1.431-2.451-3.371-4.392-5.823-5.823S18.903.391 16 .391c-2.903 0-5.58.715-8.031 2.146S3.577 5.908 2.146 8.36C.715 10.811 0 13.488 0 16.391c0 3.486 1.017 6.621 3.052 9.406s4.663 4.712 7.885 5.781c.375.07.653.021.833-.146s.271-.375.271-.625l-.011-1.125c-.007-.709-.011-1.326-.011-1.854l-.479.083c-.306.056-.691.08-1.156.073s-.948-.055-1.448-.146c-.5-.09-.965-.298-1.396-.625s-.736-.754-.916-1.281l-.208-.479c-.139-.319-.357-.674-.656-1.062s-.601-.653-.906-.792l-.146-.104c-.097-.069-.187-.153-.271-.25s-.146-.194-.187-.292c-.042-.097-.007-.177.104-.24s.312-.093.604-.093l.417.062c.278.056.621.222 1.031.5s.746.639 1.01 1.083c.32.57.705 1.004 1.156 1.302s.906.448 1.364.448.854-.035 1.187-.104c.333-.069.646-.174.937-.313.125-.931.465-1.646 1.021-2.146-.792-.083-1.503-.208-2.135-.375s-1.285-.438-1.958-.813c-.674-.375-1.233-.84-1.677-1.396s-.809-1.285-1.094-2.188c-.285-.903-.427-1.944-.427-3.125 0-1.681.549-3.111 1.646-4.292-.514-1.264-.465-2.68.146-4.25.403-.125 1-.031 1.792.281s1.371.58 1.74.802c.368.222.663.41.885.562 1.292-.361 2.625-.541 4-.541s2.708.181 4 .541l.792-.5c.541-.333 1.181-.639 1.916-.917s1.299-.354 1.688-.229c.625 1.569.68 2.986.166 4.25 1.097 1.181 1.646 2.611 1.646 4.292 0 1.18-.143 2.225-.427 3.135s-.652 1.639-1.104 2.188c-.452.549-1.014 1.011-1.688 1.385s-1.327.646-1.958.813c-.632.167-1.344.292-2.135.375.722.625 1.083 1.611 1.083 2.958v4.395c0 .25.087.458.261.625s.448.215.823.146c3.222-1.069 5.851-2.996 7.886-5.781S32 19.873 32 16.387c-.001-2.902-.716-5.579-2.146-8.03z"/></symbol><symbol id="icon-instagram" viewBox="0 0 32 32"><path d="M31.563 16.063c0 2.175-.044 4.356.012 6.531.094 3.85-2.325 6.825-5.406 8.15a9.785 9.785 0 0 1-3.881.813c-4.206.006-8.419.063-12.625-.019-3.169-.063-5.775-1.387-7.644-4-.981-1.375-1.45-2.938-1.45-4.631V9.469c0-3.656 1.781-6.213 4.944-7.875C6.888.875 8.382.569 9.938.563c4.081 0 8.169-.025 12.25.012 3.169.025 5.813 1.238 7.762 3.787 1.087 1.425 1.613 3.063 1.613 4.862v6.838zm-28.688 0v6.875c0 1.025.237 1.988.769 2.856 1.394 2.281 3.5 3.394 6.112 3.438 4.194.063 8.394.025 12.594.012a6.826 6.826 0 0 0 2.962-.656c2.538-1.212 3.956-3.144 3.944-6.044-.025-4.438-.006-8.875-.006-13.313 0-1.256-.356-2.406-1.1-3.419-1.438-1.944-3.425-2.9-5.8-2.925-4.188-.05-8.375-.019-12.563-.013-.894 0-1.756.181-2.594.494-2.3.856-4.438 3.025-4.338 6.219.075 2.162.019 4.319.019 6.475z"/><path d="M16.1 22.688c-4.031 0-7.281-3.212-7.287-7.213-.006-3.938 3.269-7.162 7.275-7.162 4.019-.006 7.281 3.213 7.287 7.181 0 3.963-3.256 7.187-7.275 7.194zm0-2.313c2.744 0 4.969-2.194 4.962-4.894-.006-2.675-2.231-4.863-4.962-4.863-2.744 0-4.981 2.181-4.981 4.875.006 2.7 2.238 4.887 4.981 4.881zM24.219 6.125c.844 0 1.531.719 1.531 1.6-.006.881-.7 1.594-1.544 1.588-.831-.006-1.512-.719-1.512-1.581-.006-.881.681-1.606 1.525-1.606z"/></symbol><symbol id="icon-telegram" viewBox="0 0 32 32"><path d="M29.402 2.839 1.051 13.828c-1.141.512-1.527 1.537-.276 2.093l7.273 2.323L25.633 7.32c.96-.686 1.943-.503 1.097.251L11.626 21.317l-.474 5.817c.439.898 1.244.902 1.757.456l4.179-3.974 7.157 5.387c1.662.989 2.567.351 2.924-1.462l4.694-22.342c.487-2.232-.344-3.215-2.462-2.36z"/></symbol></defs></svg>