<svg aria-hidden="true" style="position: absolute; width: 0; height: 0; overflow: hidden;" version="1.1" xmlns="http://www.w3.org/2000/svg" xmlns:xlink="http://www.w3.org/1999/xlink">
<defs>
<symbol id="icon-code" viewBox="0 0 32 32">
<path d="M19.952 4.319l-1.084-0.297c-0.14-0.047-0.277-0.032-0.411 0.044s-0.225 0.189-0.271 0.341l-6.523 22.575c-0.047 0.152-0.032 0.295 0.044 0.428s0.189 0.224 0.341 0.271l1.084 0.297c0.14 0.047 0.277 0.032 0.411-0.044s0.225-0.189 0.271-0.341l6.523-22.576c0.047-0.152 0.032-0.294-0.044-0.429s-0.189-0.224-0.341-0.271z"></path>
<path d="M10.177 8.726c0-0.152-0.058-0.286-0.175-0.402l-0.874-0.874c-0.117-0.117-0.251-0.175-0.402-0.175s-0.286 0.059-0.402 0.175l-8.149 8.149c-0.117 0.117-0.175 0.251-0.175 0.402s0.058 0.286 0.175 0.402l8.149 8.149c0.117 0.117 0.25 0.175 0.402 0.175s0.286-0.058 0.402-0.175l0.874-0.874c0.117-0.116 0.175-0.251 0.175-0.402s-0.058-0.285-0.175-0.402l-6.872-6.873 6.872-6.872c0.117-0.117 0.175-0.251 0.175-0.402z"></path>
<path d="M31.825 15.598l-8.149-8.149c-0.116-0.117-0.251-0.175-0.402-0.175s-0.285 0.059-0.402 0.175l-0.874 0.874c-0.116 0.117-0.175 0.251-0.175 0.402s0.058 0.286 0.175 0.402l6.872 6.872-6.872 6.873c-0.116 0.116-0.175 0.251-0.175 0.402s0.058 0.286 0.175 0.402l0.874 0.874c0.117 0.117 0.251 0.175 0.402 0.175s0.285-0.058 0.402-0.175l8.149-8.149c0.117-0.116 0.175-0.251 0.175-0.402s-0.058-0.286-0.175-0.402z"></path>
</symbol>
<symbol id="icon-code-optimization" viewBox="0 0 32 32">
<path d="M13.36 18.911v1.958l-6.96-3.017v-1.674l6.96-3.017v1.972l-4.85 1.868 4.85 1.909z"></path>
<path d="M17.664 13.12l-1.938 7.978c-0.064 0.263-0.121 0.471-0.169 0.623s-0.122 0.272-0.221 0.356c-0.099 0.086-0.244 0.128-0.433 0.128-0.47 0-0.706-0.204-0.706-0.609 0-0.106 0.046-0.371 0.139-0.796l1.931-7.978c0.101-0.424 0.198-0.715 0.29-0.872s0.272-0.235 0.54-0.235c0.231 0 0.407 0.055 0.529 0.166s0.183 0.263 0.183 0.457c0 0.143-0.049 0.404-0.145 0.782z"></path>
<path d="M25.6 17.852l-6.96 3.031v-1.958l4.864-1.909-4.864-1.882v-1.944l6.96 3.003v1.66z"></path>
<path d="M30.080 1.92h-28.16c-1.060 0-1.92 0.86-1.92 1.92v24.32c0 1.060 0.86 1.92 1.92 1.92h28.16c1.060 0 1.92-0.86 1.92-1.92v-24.32c0-1.060-0.86-1.92-1.92-1.92zM25.28 3.2c0.706 0 1.28 0.574 1.28 1.28s-0.574 1.28-1.28 1.28-1.28-0.574-1.28-1.28 0.574-1.28 1.28-1.28zM21.76 3.2c0.706 0 1.28 0.574 1.28 1.28s-0.574 1.28-1.28 1.28-1.28-0.574-1.28-1.28 0.574-1.28 1.28-1.28zM30.080 28.16h-28.16v-21.12h28.16v21.12zM28.8 5.76c-0.706 0-1.28-0.574-1.28-1.28s0.574-1.28 1.28-1.28 1.28 0.574 1.28 1.28-0.574 1.28-1.28 1.28z"></path>
</symbol>
<symbol id="icon-github" viewBox="0 0 32 32">
<path d="M29.854 8.36c-1.431-2.451-3.371-4.392-5.823-5.823s-5.128-2.146-8.031-2.146c-2.903 0-5.58 0.715-8.031 2.146s-4.392 3.371-5.823 5.823c-1.431 2.451-2.146 5.128-2.146 8.031 0 3.486 1.017 6.621 3.052 9.406s4.663 4.712 7.885 5.781c0.375 0.070 0.653 0.021 0.833-0.146s0.271-0.375 0.271-0.625c0-0.042-0.004-0.416-0.011-1.125s-0.011-1.326-0.011-1.854l-0.479 0.083c-0.306 0.056-0.691 0.080-1.156 0.073s-0.948-0.055-1.448-0.146c-0.5-0.090-0.965-0.298-1.396-0.625s-0.736-0.754-0.916-1.281l-0.208-0.479c-0.139-0.319-0.357-0.674-0.656-1.062s-0.601-0.653-0.906-0.792l-0.146-0.104c-0.097-0.069-0.187-0.153-0.271-0.25s-0.146-0.194-0.187-0.292c-0.042-0.097-0.007-0.177 0.104-0.24s0.312-0.093 0.604-0.093l0.417 0.062c0.278 0.056 0.621 0.222 1.031 0.5s0.746 0.639 1.010 1.083c0.32 0.57 0.705 1.004 1.156 1.302s0.906 0.448 1.364 0.448 0.854-0.035 1.187-0.104c0.333-0.069 0.646-0.174 0.937-0.313 0.125-0.931 0.465-1.646 1.021-2.146-0.792-0.083-1.503-0.208-2.135-0.375s-1.285-0.438-1.958-0.813c-0.674-0.375-1.233-0.84-1.677-1.396s-0.809-1.285-1.094-2.188c-0.285-0.903-0.427-1.944-0.427-3.125 0-1.681 0.549-3.111 1.646-4.292-0.514-1.264-0.465-2.68 0.146-4.25 0.403-0.125 1-0.031 1.792 0.281s1.371 0.58 1.74 0.802c0.368 0.222 0.663 0.41 0.885 0.562 1.292-0.361 2.625-0.541 4-0.541s2.708 0.181 4 0.541l0.792-0.5c0.541-0.333 1.181-0.639 1.916-0.917s1.299-0.354 1.688-0.229c0.625 1.569 0.68 2.986 0.166 4.25 1.097 1.181 1.646 2.611 1.646 4.292 0 1.18-0.143 2.225-0.427 3.135s-0.652 1.639-1.104 2.188c-0.452 0.549-1.014 1.011-1.688 1.385s-1.327 0.646-1.958 0.813c-0.632 0.167-1.344 0.292-2.135 0.375 0.722 0.625 1.083 1.611 1.083 2.958v4.395c0 0.25 0.087 0.458 0.261 0.625s0.448 0.215 0.823 0.146c3.222-1.069 5.851-2.996 7.886-5.781s3.052-5.92 3.052-9.406c-0.001-2.902-0.716-5.579-2.146-8.030z"></path>
</symbol>
<symbol id="icon-instagram" viewBox="0 0 32 32">
<path d="M31.563 16.063c0 2.175-0.044 4.356 0.012 6.531 0.094 3.85-2.325 6.825-5.406 8.15-1.238 0.531-2.538 0.813-3.881 0.813-4.206 0.006-8.419 0.063-12.625-0.019-3.169-0.063-5.775-1.387-7.644-4-0.981-1.375-1.45-2.938-1.45-4.631 0-4.481 0-8.956 0-13.438 0-3.656 1.781-6.213 4.944-7.875 1.375-0.719 2.869-1.025 4.425-1.031 4.081 0 8.169-0.025 12.25 0.012 3.169 0.025 5.813 1.238 7.762 3.787 1.087 1.425 1.613 3.063 1.613 4.862 0 2.275 0 4.556 0 6.838zM2.875 16.063c0 2.294 0 4.581 0 6.875 0 1.025 0.237 1.988 0.769 2.856 1.394 2.281 3.5 3.394 6.112 3.438 4.194 0.063 8.394 0.025 12.594 0.012 1.031 0 2.031-0.212 2.962-0.656 2.538-1.212 3.956-3.144 3.944-6.044-0.025-4.438-0.006-8.875-0.006-13.313 0-1.256-0.356-2.406-1.1-3.419-1.438-1.944-3.425-2.9-5.8-2.925-4.188-0.050-8.375-0.019-12.563-0.013-0.894 0-1.756 0.181-2.594 0.494-2.3 0.856-4.438 3.025-4.338 6.219 0.075 2.162 0.019 4.319 0.019 6.475z"></path>
<path d="M16.1 22.688c-4.031 0-7.281-3.212-7.287-7.213-0.006-3.938 3.269-7.162 7.275-7.162 4.019-0.006 7.281 3.213 7.287 7.181 0 3.963-3.256 7.187-7.275 7.194zM16.1 20.375c2.744 0 4.969-2.194 4.962-4.894-0.006-2.675-2.231-4.863-4.962-4.863-2.744 0-4.981 2.181-4.981 4.875 0.006 2.7 2.238 4.887 4.981 4.881z"></path>
<path d="M24.219 6.125c0.844 0 1.531 0.719 1.531 1.6-0.006 0.881-0.7 1.594-1.544 1.588-0.831-0.006-1.512-0.719-1.512-1.581-0.006-0.881 0.681-1.606 1.525-1.606z"></path>
</symbol>
<symbol id="icon-telegram" viewBox="0 0 32 32">
<path d="M29.402 2.839l-28.351 10.989c-1.141 0.512-1.527 1.537-0.276 2.093l7.273 2.323 17.585-10.924c0.96-0.686 1.943-0.503 1.097 0.251l-15.104 13.746-0.474 5.817c0.439 0.898 1.244 0.902 1.757 0.456l4.179-3.974 7.157 5.387c1.662 0.989 2.567 0.351 2.924-1.462l4.694-22.342c0.487-2.232-0.344-3.215-2.462-2.36z"></path>
</symbol>
</defs>
</svg>
